<svg width="40" height="40" viewBox="0 0 40 40" fill="none" xmlns="http://www.w3.org/2000/svg">
    <path d="M18.4961 7.85156C18.3217 7.85113 18.1176 7.92175 17.9199 8.08594L10.2246 14.4824C9.88136 14.7676 9.73375 14.8145 9.25781 14.8145H4.30664C3.62767 14.8145 3.08594 15.3562 3.08594 16.0352V23.9551C3.08594 24.6341 3.62767 25.1758 4.30664 25.1758H9.25781C9.73375 25.1758 9.88136 25.2227 10.2246 25.5078L17.9199 31.9043C18.447 32.3421 19.0137 32.131 19.0137 31.6113V8.37891C19.0137 8.05408 18.7868 7.85224 18.4961 7.85156ZM28.3887 10.1758L26.5723 11.9922C29.6959 16.8757 29.6988 23.1451 26.5723 28.0273L28.3789 29.8242C32.4324 23.912 32.4402 16.0889 28.3887 10.1758ZM24.0039 14.5508L22.2168 16.3477C23.8429 18.5259 23.8429 21.4937 22.2168 23.6719L23.9941 25.4492C26.5689 22.2832 26.5761 17.7182 24.0039 14.5508Z" fill="#2475AF"/>
  </svg>