<svg width="17" height="17" viewBox="0 0 17 17" fill="none" xmlns="http://www.w3.org/2000/svg">
<path opacity="0.5" d="M8.5 17C4.49306 17 2.48959 17 1.2448 15.7552C-1.01328e-07 14.5104 0 12.5069 0 8.5C0 4.49306 -1.01328e-07 2.48959 1.2448 1.2448C2.48959 -1.01328e-07 4.49306 0 8.5 0C12.5069 0 14.5104 -1.01328e-07 15.7552 1.2448C17 2.48959 17 4.49306 17 8.5C17 12.5069 17 14.5104 15.7552 15.7552C14.5104 17 12.5069 17 8.5 17Z" fill="#2475AF"/>
<path d="M8.5821 15.0303C9.15085 15.0303 9.61195 14.6179 9.61195 14.1091V6.7394C9.61195 6.23065 9.15085 5.81819 8.5821 5.81819C8.01334 5.81819 7.55225 6.23065 7.55225 6.7394V14.1091C7.55225 14.6179 8.01334 15.0303 8.5821 15.0303Z" fill="#23272E"/>
<path d="M8.5821 2.36365C9.15088 2.36365 9.61195 2.8792 9.61195 3.51516C9.61195 4.15112 9.15088 4.66668 8.5821 4.66668C8.01331 4.66668 7.55225 4.15112 7.55225 3.51516C7.55225 2.8792 8.01331 2.36365 8.5821 2.36365Z" fill="#23272E"/>
</svg>
